<?xml version="1.0" standalone="no"?>
<!DOCTYPE svg PUBLIC "-//W3C//DTD SVG 20010904//EN"
 "http://www.w3.org/TR/2001/REC-SVG-20010904/DTD/svg10.dtd">
<svg version="1.0" xmlns="http://www.w3.org/2000/svg"
 width="388.000000pt" height="388.000000pt" viewBox="0 0 388.000000 388.000000"
 preserveAspectRatio="xMidYMid meet">

<g transform="translate(0.000000,388.000000) scale(0.100000,-0.100000)"
fill="#000000" stroke="none">
<path d="M0 1940 l0 -1940 1940 0 1940 0 0 1940 0 1940 -1940 0 -1940 0 0
-1940z m795 1209 c57 -28 86 -55 121 -109 27 -42 29 -52 29 -145 0 -94 -2
-103 -30 -147 -51 -80 -153 -138 -240 -138 -75 0 -172 49 -223 112 -32 39 -62
123 -62 175 0 127 101 245 235 276 40 9 128 -3 170 -24z m1261 -321 c92 -150
171 -274 176 -276 4 -2 8 -8 8 -14 0 -6 17 -36 38 -67 21 -31 161 -254 310
-496 150 -242 281 -451 292 -465 20 -25 20 -23 20 783 l0 807 250 0 250 0 0
-1215 0 -1215 -269 0 -268 0 -93 153 c-52 83 -104 166 -117 183 -13 17 -23 36
-23 42 0 6 -4 12 -9 14 -4 2 -19 22 -32 45 -37 63 -495 805 -566 916 -35 54
-63 102 -63 107 0 6 -4 10 -10 10 -5 0 -10 5 -10 10 0 10 -79 130 -85 130 -2
0 -4 -361 -4 -802 l-1 -803 -250 -3 -250 -2 0 1215 0 1215 269 0 269 0 168
-272z m-1116 -1298 l0 -850 -257 2 -258 3 -3 848 -2 847 260 0 260 0 0 -850z"/>
</g>
</svg>
